<svg width="115" height="116" xmlns="http://www.w3.org/2000/svg" xmlns:xlink="http://www.w3.org/1999/xlink" xml:space="preserve" overflow="hidden"><g transform="translate(-319 -307)"><path d="M88.526 59.0573C90.6823 67.8021 81.6979 76.4271 72.8333 72.8333 65.4062 70.1979 62.5312 61.5729 67.6823 54.1458 79.3021 38.6927 70.7969 14.375 51.5104 5.98958 60.2552 22.5208 46.8385 37.7344 39.1719 44.0833 31.5052 50.4323 26.3542 57.0208 24.7969 60.8542 17.0104 79.7812 28.6302 97.8698 36.5365 102.182 32.9427 94.0365 29.5885 78.4635 43.724 63.849 43.724 63.849 39.651 79.4219 48.5156 90.2031 57.3802 100.984 57.2604 109.01 57.2604 109.01 71.0365 109.01 84.0937 100.745 89.6042 87.2083 93.7969 79.1823 94.1562 66.4844 88.526 59.0573" fill="#0070C0" transform="matrix(1 0 0 1.0087 319 307)"/></g></svg>